<?xml version="1.0" encoding="UTF-8"?>
<svg xmlns="http://www.w3.org/2000/svg" xmlns:xlink="http://www.w3.org/1999/xlink" width="720" height="360" viewBox="0 0 720 360">
<defs>
<g>
<g id="glyph-0-0">
<path d="M 0.519531 -3.34375 L 3.75 -3.34375 L 3.75 -2.398438 L 0.519531 -2.398438 Z M 0.519531 -3.34375 "/>
</g>
<g id="glyph-0-1">
<path d="M 1.5 -7.644531 L 3.5625 -8.648438 L 3.769531 -8.648438 L 3.769531 -1.492188 C 3.769531 -1.019531 3.789062 -0.722656 3.828125 -0.605469 C 3.867188 -0.488281 3.949219 -0.398438 4.074219 -0.335938 C 4.199219 -0.273438 4.453125 -0.238281 4.835938 -0.230469 L 4.835938 0 L 1.648438 0 L 1.648438 -0.230469 C 2.050781 -0.238281 2.308594 -0.273438 2.425781 -0.335938 C 2.542969 -0.394531 2.621094 -0.476562 2.667969 -0.578125 C 2.714844 -0.679688 2.738281 -0.984375 2.738281 -1.492188 L 2.738281 -6.070312 C 2.738281 -6.683594 2.714844 -7.082031 2.675781 -7.257812 C 2.644531 -7.390625 2.59375 -7.488281 2.515625 -7.550781 C 2.4375 -7.613281 2.347656 -7.644531 2.238281 -7.644531 C 2.082031 -7.644531 1.867188 -7.578125 1.59375 -7.449219 Z M 1.5 -7.644531 "/>
</g>
<g id="glyph-0-2">
<path d="M 0.460938 -4.1875 C 0.460938 -5.152344 0.609375 -5.988281 0.898438 -6.683594 C 1.191406 -7.382812 1.578125 -7.902344 2.0625 -8.242188 C 2.4375 -8.515625 2.824219 -8.648438 3.226562 -8.648438 C 3.875 -8.648438 4.457031 -8.320312 4.976562 -7.65625 C 5.621094 -6.835938 5.945312 -5.722656 5.945312 -4.320312 C 5.945312 -3.335938 5.800781 -2.5 5.519531 -1.8125 C 5.234375 -1.125 4.875 -0.625 4.433594 -0.316406 C 3.996094 -0.00390625 3.570312 0.148438 3.164062 0.148438 C 2.355469 0.148438 1.679688 -0.328125 1.144531 -1.28125 C 0.691406 -2.085938 0.460938 -3.054688 0.460938 -4.1875 M 1.6875 -4.03125 C 1.6875 -2.863281 1.832031 -1.914062 2.117188 -1.175781 C 2.355469 -0.554688 2.710938 -0.242188 3.179688 -0.242188 C 3.40625 -0.242188 3.640625 -0.34375 3.882812 -0.546875 C 4.121094 -0.75 4.304688 -1.085938 4.429688 -1.5625 C 4.621094 -2.277344 4.71875 -3.289062 4.71875 -4.59375 C 4.71875 -5.558594 4.617188 -6.367188 4.417969 -7.011719 C 4.269531 -7.492188 4.074219 -7.832031 3.835938 -8.03125 C 3.667969 -8.167969 3.460938 -8.238281 3.21875 -8.238281 C 2.933594 -8.238281 2.683594 -8.109375 2.460938 -7.855469 C 2.164062 -7.511719 1.957031 -6.964844 1.851562 -6.226562 C 1.742188 -5.484375 1.6875 -4.753906 1.6875 -4.03125 Z M 1.6875 -4.03125 "/>
</g>
<g id="glyph-0-3">
<path d="M 5.867188 -1.632812 L 5.273438 0 L 0.273438 0 L 0.273438 -0.230469 C 1.746094 -1.574219 2.78125 -2.667969 3.382812 -3.519531 C 3.980469 -4.367188 4.28125 -5.144531 4.28125 -5.851562 C 4.28125 -6.386719 4.117188 -6.828125 3.789062 -7.175781 C 3.457031 -7.519531 3.066406 -7.695312 2.605469 -7.695312 C 2.191406 -7.695312 1.816406 -7.570312 1.484375 -7.328125 C 1.152344 -7.085938 0.910156 -6.726562 0.75 -6.257812 L 0.519531 -6.257812 C 0.621094 -7.027344 0.890625 -7.617188 1.320312 -8.03125 C 1.753906 -8.445312 2.292969 -8.648438 2.9375 -8.648438 C 3.625 -8.648438 4.199219 -8.429688 4.660156 -7.988281 C 5.121094 -7.546875 5.351562 -7.023438 5.351562 -6.425781 C 5.351562 -5.996094 5.25 -5.566406 5.050781 -5.136719 C 4.742188 -4.460938 4.242188 -3.746094 3.550781 -2.992188 C 2.511719 -1.859375 1.863281 -1.175781 1.605469 -0.945312 L 3.820312 -0.945312 C 4.269531 -0.945312 4.585938 -0.960938 4.765625 -0.992188 C 4.945312 -1.027344 5.109375 -1.09375 5.257812 -1.195312 C 5.402344 -1.300781 5.527344 -1.445312 5.636719 -1.632812 Z M 5.867188 -1.632812 "/>
</g>
<g id="glyph-0-4">
<path d="M 0.167969 -5.726562 L 2.863281 -5.726562 L 2.863281 -5.492188 C 2.691406 -5.492188 2.570312 -5.464844 2.503906 -5.40625 C 2.433594 -5.347656 2.398438 -5.269531 2.398438 -5.175781 C 2.398438 -5.074219 2.472656 -4.921875 2.617188 -4.710938 C 2.664062 -4.644531 2.734375 -4.542969 2.824219 -4.398438 L 3.230469 -3.75 L 3.699219 -4.398438 C 4 -4.8125 4.148438 -5.074219 4.148438 -5.179688 C 4.148438 -5.269531 4.113281 -5.34375 4.042969 -5.402344 C 3.972656 -5.464844 3.859375 -5.492188 3.699219 -5.492188 L 3.699219 -5.726562 L 5.636719 -5.726562 L 5.636719 -5.492188 C 5.433594 -5.480469 5.257812 -5.425781 5.105469 -5.324219 C 4.902344 -5.183594 4.621094 -4.875 4.269531 -4.398438 L 3.488281 -3.355469 L 4.914062 -1.304688 C 5.261719 -0.800781 5.511719 -0.5 5.664062 -0.398438 C 5.8125 -0.292969 6.007812 -0.238281 6.242188 -0.226562 L 6.242188 0 L 3.542969 0 L 3.542969 -0.226562 C 3.730469 -0.226562 3.878906 -0.265625 3.980469 -0.351562 C 4.058594 -0.410156 4.101562 -0.484375 4.101562 -0.582031 C 4.101562 -0.675781 3.964844 -0.917969 3.699219 -1.304688 L 2.863281 -2.53125 L 1.945312 -1.304688 C 1.660156 -0.925781 1.519531 -0.703125 1.519531 -0.632812 C 1.519531 -0.53125 1.566406 -0.441406 1.660156 -0.359375 C 1.753906 -0.277344 1.894531 -0.234375 2.082031 -0.226562 L 2.082031 0 L 0.210938 0 L 0.210938 -0.226562 C 0.363281 -0.246094 0.492188 -0.296875 0.605469 -0.382812 C 0.765625 -0.503906 1.03125 -0.808594 1.40625 -1.304688 L 2.605469 -2.898438 L 1.519531 -4.476562 C 1.210938 -4.925781 0.972656 -5.207031 0.804688 -5.320312 C 0.632812 -5.4375 0.421875 -5.492188 0.167969 -5.492188 Z M 0.167969 -5.726562 "/>
</g>
<g id="glyph-0-5">
<path d="M 5.867188 -8.667969 L 5.867188 -5.738281 L 5.636719 -5.738281 C 5.5625 -6.300781 5.429688 -6.746094 5.234375 -7.082031 C 5.039062 -7.414062 4.765625 -7.679688 4.40625 -7.875 C 4.046875 -8.070312 3.675781 -8.167969 3.292969 -8.167969 C 2.859375 -8.167969 2.503906 -8.035156 2.21875 -7.773438 C 1.933594 -7.507812 1.792969 -7.207031 1.792969 -6.867188 C 1.792969 -6.609375 1.882812 -6.375 2.0625 -6.164062 C 2.320312 -5.851562 2.933594 -5.433594 3.90625 -4.914062 C 4.699219 -4.488281 5.238281 -4.160156 5.527344 -3.933594 C 5.816406 -3.707031 6.039062 -3.441406 6.195312 -3.132812 C 6.351562 -2.824219 6.429688 -2.5 6.429688 -2.164062 C 6.429688 -1.519531 6.183594 -0.96875 5.683594 -0.503906 C 5.1875 -0.0390625 4.546875 0.195312 3.761719 0.195312 C 3.515625 0.195312 3.285156 0.175781 3.070312 0.136719 C 2.941406 0.117188 2.671875 0.0390625 2.265625 -0.0898438 C 1.859375 -0.222656 1.601562 -0.289062 1.492188 -0.289062 C 1.390625 -0.289062 1.308594 -0.257812 1.246094 -0.195312 C 1.1875 -0.132812 1.140625 -0.00390625 1.113281 0.195312 L 0.882812 0.195312 L 0.882812 -2.710938 L 1.113281 -2.710938 C 1.222656 -2.105469 1.367188 -1.648438 1.550781 -1.347656 C 1.734375 -1.042969 2.011719 -0.792969 2.390625 -0.59375 C 2.769531 -0.394531 3.179688 -0.292969 3.632812 -0.292969 C 4.152344 -0.292969 4.5625 -0.429688 4.867188 -0.707031 C 5.167969 -0.980469 5.320312 -1.304688 5.320312 -1.679688 C 5.320312 -1.890625 5.261719 -2.101562 5.148438 -2.3125 C 5.03125 -2.523438 4.855469 -2.722656 4.613281 -2.90625 C 4.449219 -3.03125 4.007812 -3.296875 3.28125 -3.703125 C 2.554688 -4.109375 2.039062 -4.433594 1.734375 -4.675781 C 1.429688 -4.917969 1.195312 -5.183594 1.039062 -5.476562 C 0.878906 -5.765625 0.800781 -6.085938 0.800781 -6.4375 C 0.800781 -7.046875 1.035156 -7.570312 1.5 -8.007812 C 1.964844 -8.449219 2.558594 -8.667969 3.28125 -8.667969 C 3.730469 -8.667969 4.207031 -8.558594 4.710938 -8.335938 C 4.945312 -8.234375 5.109375 -8.179688 5.207031 -8.179688 C 5.316406 -8.179688 5.402344 -8.214844 5.472656 -8.277344 C 5.539062 -8.34375 5.597656 -8.472656 5.636719 -8.667969 Z M 5.867188 -8.667969 "/>
</g>
<g id="glyph-1-0">
<path d="M 1.703125 -4.460938 C 1.699219 -3.398438 1.957031 -2.566406 2.476562 -1.960938 C 2.996094 -1.355469 3.609375 -1.054688 4.3125 -1.054688 C 4.78125 -1.054688 5.1875 -1.183594 5.535156 -1.441406 C 5.882812 -1.699219 6.171875 -2.140625 6.40625 -2.765625 L 6.648438 -2.609375 C 6.539062 -1.894531 6.222656 -1.246094 5.695312 -0.660156 C 5.167969 -0.0742188 4.511719 0.21875 3.71875 0.21875 C 2.859375 0.21875 2.125 -0.117188 1.511719 -0.785156 C 0.898438 -1.453125 0.59375 -2.355469 0.59375 -3.484375 C 0.59375 -4.707031 0.90625 -5.664062 1.535156 -6.347656 C 2.164062 -7.03125 2.949219 -7.375 3.898438 -7.375 C 4.699219 -7.375 5.359375 -7.109375 5.875 -6.582031 C 6.390625 -6.054688 6.648438 -5.347656 6.648438 -4.460938 L 1.703125 -4.460938 M 1.703125 -4.914062 L 5.015625 -4.914062 C 4.988281 -5.371094 4.933594 -5.695312 4.851562 -5.882812 C 4.722656 -6.175781 4.527344 -6.402344 4.269531 -6.570312 C 4.011719 -6.738281 3.742188 -6.820312 3.460938 -6.820312 C 3.027344 -6.820312 2.640625 -6.652344 2.300781 -6.316406 C 1.960938 -5.980469 1.761719 -5.511719 1.703125 -4.914062 Z M 1.703125 -4.914062 "/>
</g>
<g id="glyph-1-1">
<path d="M 5.554688 -0.804688 C 5.207031 -0.441406 4.863281 -0.179688 4.53125 -0.0195312 C 4.199219 0.140625 3.839844 0.21875 3.453125 0.21875 C 2.671875 0.21875 1.988281 -0.109375 1.40625 -0.761719 C 0.824219 -1.414062 0.53125 -2.253906 0.53125 -3.28125 C 0.53125 -4.308594 0.855469 -5.246094 1.5 -6.097656 C 2.144531 -6.949219 2.976562 -7.375 3.992188 -7.375 C 4.621094 -7.375 5.144531 -7.175781 5.554688 -6.773438 L 5.554688 -8.09375 C 5.554688 -8.910156 5.535156 -9.414062 5.496094 -9.601562 C 5.457031 -9.789062 5.394531 -9.917969 5.3125 -9.984375 C 5.230469 -10.050781 5.125 -10.085938 5 -10.085938 C 4.863281 -10.085938 4.683594 -10.042969 4.460938 -9.960938 L 4.359375 -10.234375 L 6.492188 -11.109375 L 6.84375 -11.109375 L 6.84375 -2.835938 C 6.84375 -1.996094 6.863281 -1.484375 6.902344 -1.300781 C 6.941406 -1.117188 7.003906 -0.988281 7.089844 -0.914062 C 7.175781 -0.839844 7.277344 -0.804688 7.390625 -0.804688 C 7.53125 -0.804688 7.71875 -0.847656 7.953125 -0.9375 L 8.039062 -0.664062 L 5.914062 0.21875 L 5.554688 0.21875 L 5.554688 -0.804688 M 5.554688 -1.351562 L 5.554688 -5.039062 C 5.523438 -5.394531 5.429688 -5.714844 5.273438 -6.007812 C 5.117188 -6.300781 4.910156 -6.519531 4.652344 -6.667969 C 4.394531 -6.816406 4.144531 -6.890625 3.898438 -6.890625 C 3.441406 -6.890625 3.03125 -6.683594 2.671875 -6.273438 C 2.199219 -5.730469 1.960938 -4.941406 1.960938 -3.898438 C 1.960938 -2.847656 2.191406 -2.039062 2.648438 -1.480469 C 3.105469 -0.921875 3.617188 -0.640625 4.179688 -0.640625 C 4.652344 -0.640625 5.113281 -0.878906 5.554688 -1.351562 Z M 5.554688 -1.351562 "/>
</g>
<g id="glyph-1-2">
<path d="M 6.773438 -7.15625 L 6.773438 -2.820312 C 6.773438 -1.992188 6.792969 -1.484375 6.832031 -1.300781 C 6.871094 -1.117188 6.933594 -0.988281 7.019531 -0.914062 C 7.105469 -0.839844 7.207031 -0.804688 7.320312 -0.804688 C 7.480469 -0.804688 7.664062 -0.847656 7.867188 -0.9375 L 7.976562 -0.664062 L 5.835938 0.21875 L 5.484375 0.21875 L 5.484375 -1.296875 C 4.871094 -0.628906 4.402344 -0.210938 4.078125 -0.0390625 C 3.753906 0.132812 3.414062 0.21875 3.054688 0.21875 C 2.652344 0.21875 2.304688 0.101562 2.011719 -0.128906 C 1.71875 -0.359375 1.511719 -0.660156 1.398438 -1.023438 C 1.285156 -1.386719 1.226562 -1.902344 1.226562 -2.570312 L 1.226562 -5.765625 C 1.226562 -6.105469 1.191406 -6.339844 1.117188 -6.46875 C 1.042969 -6.597656 0.9375 -6.699219 0.792969 -6.769531 C 0.648438 -6.839844 0.390625 -6.871094 0.015625 -6.867188 L 0.015625 -7.15625 L 2.523438 -7.15625 L 2.523438 -2.367188 C 2.523438 -1.699219 2.640625 -1.261719 2.871094 -1.054688 C 3.101562 -0.847656 3.382812 -0.742188 3.710938 -0.742188 C 3.933594 -0.742188 4.1875 -0.8125 4.472656 -0.953125 C 4.757812 -1.09375 5.09375 -1.363281 5.484375 -1.757812 L 5.484375 -5.8125 C 5.484375 -6.21875 5.410156 -6.492188 5.261719 -6.636719 C 5.113281 -6.78125 4.804688 -6.855469 4.335938 -6.867188 L 4.335938 -7.15625 Z M 6.773438 -7.15625 "/>
</g>
<g id="glyph-1-3">
<path d="M 6.578125 -2.71875 C 6.386719 -1.777344 6.007812 -1.050781 5.445312 -0.542969 C 4.882812 -0.0351562 4.261719 0.21875 3.578125 0.21875 C 2.765625 0.21875 2.058594 -0.121094 1.453125 -0.804688 C 0.847656 -1.488281 0.546875 -2.410156 0.546875 -3.570312 C 0.546875 -4.695312 0.882812 -5.609375 1.550781 -6.3125 C 2.21875 -7.015625 3.023438 -7.367188 3.960938 -7.367188 C 4.664062 -7.367188 5.242188 -7.179688 5.695312 -6.808594 C 6.148438 -6.4375 6.375 -6.050781 6.375 -5.648438 C 6.375 -5.449219 6.3125 -5.289062 6.183594 -5.167969 C 6.054688 -5.046875 5.878906 -4.984375 5.648438 -4.984375 C 5.339844 -4.984375 5.109375 -5.082031 4.953125 -5.28125 C 4.863281 -5.390625 4.804688 -5.597656 4.777344 -5.90625 C 4.75 -6.214844 4.644531 -6.449219 4.460938 -6.609375 C 4.277344 -6.765625 4.027344 -6.84375 3.703125 -6.84375 C 3.183594 -6.84375 2.761719 -6.652344 2.445312 -6.265625 C 2.023438 -5.753906 1.8125 -5.082031 1.8125 -4.242188 C 1.8125 -3.386719 2.023438 -2.632812 2.441406 -1.980469 C 2.859375 -1.328125 3.425781 -1 4.140625 -1 C 4.652344 -1 5.109375 -1.175781 5.515625 -1.523438 C 5.800781 -1.761719 6.082031 -2.199219 6.351562 -2.828125 Z M 6.578125 -2.71875 "/>
</g>
<g id="glyph-1-4">
<path d="M 4.554688 -1.03125 C 3.820312 -0.464844 3.359375 -0.136719 3.171875 -0.046875 C 2.890625 0.0820312 2.589844 0.148438 2.273438 0.148438 C 1.777344 0.148438 1.371094 -0.0195312 1.050781 -0.359375 C 0.730469 -0.699219 0.570312 -1.144531 0.570312 -1.695312 C 0.570312 -2.042969 0.648438 -2.347656 0.804688 -2.601562 C 1.019531 -2.957031 1.390625 -3.289062 1.917969 -3.601562 C 2.445312 -3.914062 3.324219 -4.292969 4.554688 -4.742188 L 4.554688 -5.023438 C 4.554688 -5.738281 4.441406 -6.226562 4.214844 -6.492188 C 3.988281 -6.757812 3.660156 -6.890625 3.226562 -6.890625 C 2.898438 -6.890625 2.636719 -6.800781 2.445312 -6.625 C 2.246094 -6.449219 2.148438 -6.246094 2.148438 -6.015625 L 2.164062 -5.5625 C 2.164062 -5.324219 2.101562 -5.136719 1.980469 -5.007812 C 1.859375 -4.878906 1.699219 -4.8125 1.5 -4.8125 C 1.308594 -4.8125 1.148438 -4.878906 1.027344 -5.015625 C 0.90625 -5.152344 0.84375 -5.335938 0.84375 -5.570312 C 0.84375 -6.019531 1.074219 -6.429688 1.53125 -6.804688 C 1.988281 -7.179688 2.632812 -7.367188 3.460938 -7.367188 C 4.097656 -7.367188 4.617188 -7.261719 5.023438 -7.046875 C 5.332031 -6.886719 5.558594 -6.632812 5.703125 -6.289062 C 5.796875 -6.066406 5.84375 -5.605469 5.84375 -4.914062 L 5.84375 -2.484375 C 5.84375 -1.800781 5.855469 -1.382812 5.882812 -1.230469 C 5.910156 -1.078125 5.953125 -0.972656 6.011719 -0.921875 C 6.070312 -0.871094 6.140625 -0.84375 6.21875 -0.84375 C 6.300781 -0.84375 6.375 -0.863281 6.4375 -0.898438 C 6.546875 -0.964844 6.757812 -1.15625 7.070312 -1.46875 L 7.070312 -1.03125 C 6.488281 -0.25 5.929688 0.140625 5.398438 0.140625 C 5.144531 0.140625 4.941406 0.0507812 4.789062 -0.125 C 4.636719 -0.300781 4.558594 -0.605469 4.554688 -1.03125 M 4.554688 -1.539062 L 4.554688 -4.265625 C 3.769531 -3.953125 3.261719 -3.730469 3.03125 -3.601562 C 2.621094 -3.371094 2.324219 -3.132812 2.148438 -2.882812 C 1.972656 -2.632812 1.882812 -2.359375 1.882812 -2.0625 C 1.882812 -1.6875 1.996094 -1.375 2.21875 -1.128906 C 2.441406 -0.882812 2.699219 -0.757812 2.992188 -0.757812 C 3.386719 -0.757812 3.910156 -1.019531 4.554688 -1.539062 Z M 4.554688 -1.539062 "/>
</g>
<g id="glyph-1-5">
<path d="M 2.578125 -9.507812 L 2.578125 -7.15625 L 4.25 -7.15625 L 4.25 -6.609375 L 2.578125 -6.609375 L 2.578125 -1.96875 C 2.578125 -1.503906 2.644531 -1.191406 2.777344 -1.03125 C 2.910156 -0.871094 3.082031 -0.789062 3.289062 -0.789062 C 3.460938 -0.789062 3.628906 -0.84375 3.789062 -0.949219 C 3.949219 -1.054688 4.074219 -1.214844 4.164062 -1.421875 L 4.46875 -1.421875 C 4.285156 -0.910156 4.027344 -0.527344 3.695312 -0.269531 C 3.363281 -0.0117188 3.019531 0.117188 2.664062 0.117188 C 2.425781 0.117188 2.191406 0.0507812 1.960938 -0.0820312 C 1.730469 -0.214844 1.5625 -0.40625 1.453125 -0.652344 C 1.34375 -0.898438 1.289062 -1.28125 1.289062 -1.796875 L 1.289062 -6.609375 L 0.15625 -6.609375 L 0.15625 -6.867188 C 0.441406 -6.980469 0.734375 -7.175781 1.035156 -7.449219 C 1.335938 -7.722656 1.601562 -8.046875 1.835938 -8.421875 C 1.957031 -8.621094 2.121094 -8.980469 2.335938 -9.507812 Z M 2.578125 -9.507812 "/>
</g>
<g id="glyph-1-6">
<path d="M 2.320312 -11.109375 C 2.539062 -11.109375 2.726562 -11.03125 2.878906 -10.878906 C 3.03125 -10.726562 3.109375 -10.539062 3.109375 -10.320312 C 3.109375 -10.101562 3.03125 -9.914062 2.878906 -9.757812 C 2.726562 -9.601562 2.539062 -9.523438 2.320312 -9.523438 C 2.101562 -9.523438 1.914062 -9.601562 1.757812 -9.757812 C 1.601562 -9.914062 1.523438 -10.101562 1.523438 -10.320312 C 1.523438 -10.539062 1.601562 -10.726562 1.753906 -10.878906 C 1.90625 -11.03125 2.097656 -11.109375 2.320312 -11.109375 M 2.96875 -7.367188 L 2.96875 -1.617188 C 2.96875 -1.167969 3 -0.871094 3.066406 -0.722656 C 3.132812 -0.574219 3.226562 -0.464844 3.355469 -0.390625 C 3.484375 -0.316406 3.714844 -0.28125 4.054688 -0.28125 L 4.054688 0 L 0.578125 0 L 0.578125 -0.28125 C 0.925781 -0.28125 1.160156 -0.316406 1.28125 -0.382812 C 1.402344 -0.449219 1.496094 -0.5625 1.566406 -0.71875 C 1.636719 -0.875 1.671875 -1.175781 1.671875 -1.617188 L 1.671875 -4.375 C 1.671875 -5.152344 1.648438 -5.652344 1.601562 -5.882812 C 1.566406 -6.050781 1.507812 -6.164062 1.429688 -6.230469 C 1.351562 -6.296875 1.246094 -6.328125 1.109375 -6.328125 C 0.964844 -6.328125 0.785156 -6.289062 0.578125 -6.210938 L 0.46875 -6.492188 L 2.625 -7.367188 Z M 2.96875 -7.367188 "/>
</g>
<g id="glyph-1-7">
<path d="M 4 -7.367188 C 5.082031 -7.367188 5.953125 -6.957031 6.609375 -6.132812 C 7.167969 -5.429688 7.445312 -4.621094 7.445312 -3.710938 C 7.445312 -3.070312 7.292969 -2.421875 6.984375 -1.765625 C 6.675781 -1.109375 6.253906 -0.613281 5.714844 -0.28125 C 5.175781 0.0507812 4.574219 0.21875 3.914062 0.21875 C 2.835938 0.21875 1.980469 -0.210938 1.34375 -1.070312 C 0.808594 -1.792969 0.539062 -2.605469 0.539062 -3.507812 C 0.539062 -4.164062 0.703125 -4.816406 1.027344 -5.464844 C 1.351562 -6.113281 1.78125 -6.59375 2.3125 -6.902344 C 2.84375 -7.210938 3.40625 -7.367188 4 -7.367188 M 3.757812 -6.859375 C 3.480469 -6.859375 3.203125 -6.777344 2.925781 -6.613281 C 2.648438 -6.449219 2.421875 -6.160156 2.25 -5.75 C 2.078125 -5.339844 1.992188 -4.808594 1.992188 -4.164062 C 1.992188 -3.121094 2.199219 -2.222656 2.613281 -1.46875 C 3.027344 -0.714844 3.574219 -0.335938 4.25 -0.335938 C 4.753906 -0.335938 5.171875 -0.542969 5.5 -0.960938 C 5.828125 -1.378906 5.992188 -2.09375 5.992188 -3.109375 C 5.992188 -4.378906 5.71875 -5.378906 5.171875 -6.109375 C 4.800781 -6.609375 4.332031 -6.859375 3.757812 -6.859375 Z M 3.757812 -6.859375 "/>
</g>
<g id="glyph-1-8">
<path d="M 2.585938 -5.851562 C 3.425781 -6.863281 4.222656 -7.367188 4.984375 -7.367188 C 5.375 -7.367188 5.710938 -7.269531 5.992188 -7.074219 C 6.273438 -6.878906 6.496094 -6.558594 6.664062 -6.109375 C 6.777344 -5.796875 6.835938 -5.316406 6.835938 -4.671875 L 6.835938 -1.617188 C 6.835938 -1.164062 6.871094 -0.855469 6.945312 -0.695312 C 7.003906 -0.566406 7.09375 -0.464844 7.222656 -0.390625 C 7.351562 -0.316406 7.585938 -0.28125 7.929688 -0.28125 L 7.929688 0 L 4.390625 0 L 4.390625 -0.28125 L 4.539062 -0.28125 C 4.871094 -0.28125 5.105469 -0.332031 5.238281 -0.433594 C 5.371094 -0.535156 5.464844 -0.683594 5.515625 -0.882812 C 5.535156 -0.960938 5.546875 -1.207031 5.546875 -1.617188 L 5.546875 -4.546875 C 5.546875 -5.199219 5.460938 -5.671875 5.292969 -5.964844 C 5.125 -6.257812 4.839844 -6.40625 4.4375 -6.40625 C 3.816406 -6.40625 3.199219 -6.066406 2.585938 -5.390625 L 2.585938 -1.617188 C 2.585938 -1.132812 2.613281 -0.832031 2.671875 -0.71875 C 2.746094 -0.566406 2.84375 -0.457031 2.972656 -0.386719 C 3.101562 -0.316406 3.359375 -0.28125 3.75 -0.28125 L 3.75 0 L 0.210938 0 L 0.210938 -0.28125 L 0.367188 -0.28125 C 0.730469 -0.28125 0.976562 -0.375 1.105469 -0.558594 C 1.234375 -0.742188 1.296875 -1.097656 1.296875 -1.617188 L 1.296875 -4.273438 C 1.296875 -5.132812 1.277344 -5.65625 1.238281 -5.84375 C 1.199219 -6.03125 1.140625 -6.160156 1.058594 -6.226562 C 0.976562 -6.292969 0.871094 -6.328125 0.734375 -6.328125 C 0.589844 -6.328125 0.414062 -6.289062 0.210938 -6.210938 L 0.09375 -6.492188 L 2.25 -7.367188 L 2.585938 -7.367188 Z M 2.585938 -5.851562 "/>
</g>
<g id="glyph-2-0">
<path d="M 1.300781 -6.222656 C 1.421875 -6.222656 1.527344 -6.179688 1.613281 -6.09375 C 1.699219 -6.007812 1.742188 -5.902344 1.742188 -5.78125 C 1.742188 -5.65625 1.699219 -5.550781 1.613281 -5.464844 C 1.527344 -5.375 1.421875 -5.332031 1.300781 -5.332031 C 1.175781 -5.332031 1.070312 -5.375 0.984375 -5.464844 C 0.898438 -5.550781 0.851562 -5.65625 0.851562 -5.78125 C 0.851562 -5.902344 0.894531 -6.007812 0.980469 -6.09375 C 1.066406 -6.179688 1.175781 -6.222656 1.300781 -6.222656 M 1.664062 -4.125 L 1.664062 -0.90625 C 1.664062 -0.65625 1.679688 -0.488281 1.71875 -0.40625 C 1.753906 -0.320312 1.808594 -0.257812 1.878906 -0.21875 C 1.949219 -0.179688 2.082031 -0.15625 2.269531 -0.15625 L 2.269531 0 L 0.324219 0 L 0.324219 -0.15625 C 0.519531 -0.15625 0.652344 -0.175781 0.71875 -0.214844 C 0.785156 -0.253906 0.835938 -0.316406 0.878906 -0.402344 C 0.917969 -0.488281 0.9375 -0.65625 0.9375 -0.90625 L 0.9375 -2.449219 C 0.9375 -2.882812 0.921875 -3.167969 0.898438 -3.292969 C 0.875 -3.386719 0.84375 -3.453125 0.800781 -3.488281 C 0.757812 -3.527344 0.695312 -3.542969 0.621094 -3.542969 C 0.539062 -3.542969 0.441406 -3.523438 0.324219 -3.476562 L 0.261719 -3.636719 L 1.46875 -4.125 Z M 1.664062 -4.125 "/>
</g>
<g id="glyph-2-1">
<path d="M 0.117188 -4.007812 L 2.003906 -4.007812 L 2.003906 -3.84375 C 1.882812 -3.84375 1.800781 -3.824219 1.753906 -3.785156 C 1.703125 -3.742188 1.679688 -3.691406 1.679688 -3.621094 C 1.679688 -3.550781 1.730469 -3.445312 1.832031 -3.296875 C 1.863281 -3.253906 1.914062 -3.179688 1.976562 -3.078125 L 2.261719 -2.625 L 2.589844 -3.078125 C 2.800781 -3.367188 2.90625 -3.550781 2.90625 -3.625 C 2.90625 -3.6875 2.878906 -3.738281 2.832031 -3.78125 C 2.78125 -3.824219 2.699219 -3.84375 2.589844 -3.84375 L 2.589844 -4.007812 L 3.945312 -4.007812 L 3.945312 -3.84375 C 3.804688 -3.835938 3.679688 -3.796875 3.574219 -3.726562 C 3.429688 -3.628906 3.234375 -3.414062 2.988281 -3.078125 L 2.441406 -2.347656 L 3.4375 -0.914062 C 3.683594 -0.5625 3.859375 -0.347656 3.964844 -0.277344 C 4.070312 -0.207031 4.203125 -0.167969 4.371094 -0.15625 L 4.371094 0 L 2.480469 0 L 2.480469 -0.15625 C 2.613281 -0.15625 2.714844 -0.1875 2.785156 -0.246094 C 2.84375 -0.285156 2.871094 -0.339844 2.871094 -0.40625 C 2.871094 -0.472656 2.777344 -0.644531 2.589844 -0.914062 L 2.003906 -1.773438 L 1.359375 -0.914062 C 1.164062 -0.648438 1.0625 -0.492188 1.0625 -0.441406 C 1.0625 -0.371094 1.097656 -0.308594 1.160156 -0.25 C 1.226562 -0.195312 1.324219 -0.164062 1.457031 -0.15625 L 1.457031 0 L 0.148438 0 L 0.148438 -0.15625 C 0.253906 -0.171875 0.34375 -0.207031 0.425781 -0.265625 C 0.535156 -0.351562 0.722656 -0.566406 0.984375 -0.914062 L 1.824219 -2.03125 L 1.0625 -3.132812 C 0.847656 -3.449219 0.679688 -3.644531 0.5625 -3.726562 C 0.445312 -3.804688 0.296875 -3.84375 0.117188 -3.84375 Z M 0.117188 -4.007812 "/>
</g>
<g id="glyph-3-0">
<path d="M 0.230469 -3.601562 L 6.792969 -3.601562 L 6.792969 -2.980469 L 0.230469 -2.980469 Z M 0.230469 -3.601562 "/>
</g>
<g id="glyph-4-0">
<path d="M 4.96875 3.117188 L 4.96875 3.453125 C 3.609375 2.777344 2.550781 1.78125 1.792969 0.472656 C 1.035156 -0.835938 0.65625 -2.269531 0.65625 -3.828125 C 0.65625 -5.449219 1.054688 -6.921875 1.851562 -8.253906 C 2.648438 -9.585938 3.6875 -10.535156 4.96875 -11.109375 L 4.96875 -10.78125 C 4.328125 -10.425781 3.800781 -9.941406 3.390625 -9.328125 C 2.980469 -8.714844 2.671875 -7.933594 2.46875 -6.988281 C 2.265625 -6.042969 2.164062 -5.058594 2.164062 -4.03125 C 2.164062 -2.871094 2.257812 -1.820312 2.445312 -0.882812 C 2.632812 0.0546875 2.917969 0.832031 3.304688 1.449219 C 3.691406 2.066406 4.246094 2.621094 4.96875 3.117188 Z M 4.96875 3.117188 "/>
</g>
<g id="glyph-4-1">
<path d="M 0.351562 -10.78125 L 0.351562 -11.109375 C 1.710938 -10.4375 2.769531 -9.445312 3.527344 -8.136719 C 4.285156 -6.828125 4.664062 -5.394531 4.664062 -3.835938 C 4.664062 -2.214844 4.265625 -0.738281 3.46875 0.59375 C 2.671875 1.925781 1.632812 2.878906 0.351562 3.453125 L 0.351562 3.117188 C 0.996094 2.761719 1.527344 2.277344 1.9375 1.664062 C 2.347656 1.050781 2.65625 0.269531 2.855469 -0.671875 C 3.054688 -1.613281 3.15625 -2.601562 3.15625 -3.632812 C 3.15625 -4.789062 3.0625 -5.835938 2.878906 -6.777344 C 2.695312 -7.71875 2.40625 -8.496094 2.019531 -9.113281 C 1.632812 -9.730469 1.074219 -10.285156 0.351562 -10.78125 Z M 0.351562 -10.78125 "/>
</g>
</g>
<clipPath id="clip-0">
<path clip-rule="nonzero" d="M 7.96875 7.96875 L 597.890625 7.96875 L 597.890625 311.585938 L 7.96875 311.585938 Z M 7.96875 7.96875 "/>
</clipPath>
<clipPath id="clip-1">
<path clip-rule="nonzero" d="M 34 199 L 572 199 L 572 311.585938 L 34 311.585938 Z M 34 199 "/>
</clipPath>
<clipPath id="clip-2">
<path clip-rule="nonzero" d="M 34 7.96875 L 572 7.96875 L 572 311.585938 L 34 311.585938 Z M 34 7.96875 "/>
</clipPath>
</defs>
<rect x="-72" y="-36" width="864" height="432" fill="rgb(100%, 100%, 100%)" fill-opacity="1"/>
<rect x="-72" y="-36" width="864" height="432" fill="rgb(100%, 100%, 100%)" fill-opacity="1"/>
<path fill="none" stroke-width="1.551969" stroke-linecap="round" stroke-linejoin="round" stroke="rgb(100%, 100%, 100%)" stroke-opacity="1" stroke-miterlimit="10" d="M 0 360 L 720 360 L 720 0 L 0 0 Z M 0 360 "/>
<g clip-path="url(#clip-0)">
<path fill-rule="nonzero" fill="rgb(100%, 100%, 100%)" fill-opacity="1" d="M 7.96875 311.585938 L 597.890625 311.585938 L 597.890625 7.96875 L 7.96875 7.96875 Z M 7.96875 311.585938 "/>
</g>
<g clip-path="url(#clip-1)">
<path fill="none" stroke-width="1.551969" stroke-linecap="butt" stroke-linejoin="round" stroke="rgb(0%, 0%, 100%)" stroke-opacity="1" stroke-miterlimit="10" d="M 34.785156 311.585938 L 258.328125 311.585938 L 259.375 311.582031 L 261.476562 311.582031 L 262.523438 311.578125 L 263.574219 311.578125 L 264.625 311.574219 L 265.671875 311.570312 L 266.722656 311.566406 L 267.773438 311.558594 L 268.820312 311.554688 L 269.871094 311.542969 L 270.921875 311.535156 L 271.96875 311.523438 L 273.019531 311.507812 L 274.070312 311.488281 L 275.117188 311.46875 L 276.167969 311.441406 L 277.21875 311.410156 L 278.265625 311.375 L 279.316406 311.328125 L 280.367188 311.277344 L 281.414062 311.21875 L 282.464844 311.148438 L 283.515625 311.0625 L 284.5625 310.964844 L 285.613281 310.851562 L 286.664062 310.722656 L 287.710938 310.574219 L 288.761719 310.398438 L 289.8125 310.199219 L 290.859375 309.972656 L 291.910156 309.71875 L 292.960938 309.433594 L 294.007812 309.101562 L 295.058594 308.730469 L 296.109375 308.320312 L 297.15625 307.863281 L 298.207031 307.351562 L 299.257812 306.777344 L 300.304688 306.148438 L 301.355469 305.460938 L 302.40625 304.707031 L 303.453125 303.878906 L 304.503906 302.96875 L 305.554688 301.984375 L 306.601562 300.925781 L 307.652344 299.785156 L 308.703125 298.550781 L 309.75 297.222656 L 310.800781 295.808594 L 311.851562 294.308594 L 312.902344 292.726562 L 313.949219 291.03125 L 315 289.246094 L 316.050781 287.378906 L 317.097656 285.425781 L 318.148438 283.390625 L 319.199219 281.253906 L 320.246094 279.039062 L 321.296875 276.757812 L 322.347656 274.40625 L 323.394531 271.992188 L 324.445312 269.503906 L 325.496094 266.96875 L 326.542969 264.390625 L 327.59375 261.773438 L 328.644531 259.125 L 329.691406 256.445312 L 330.742188 253.753906 L 331.792969 251.054688 L 332.839844 248.359375 L 333.890625 245.667969 L 334.941406 243 L 335.988281 240.359375 L 337.039062 237.75 L 338.089844 235.179688 L 339.136719 232.664062 L 340.1875 230.214844 L 341.238281 227.828125 L 342.285156 225.507812 L 343.335938 223.261719 L 344.386719 221.113281 L 345.433594 219.0625 L 346.484375 217.097656 L 347.535156 215.230469 L 348.582031 213.460938 L 349.632812 211.816406 L 350.683594 210.285156 L 351.730469 208.859375 L 352.78125 207.539062 L 353.832031 206.324219 L 354.878906 205.253906 L 355.929688 204.289062 L 356.980469 203.429688 L 358.027344 202.671875 L 359.078125 202.019531 L 360.128906 201.492188 L 361.175781 201.058594 L 362.226562 200.714844 L 363.277344 200.453125 L 364.324219 200.277344 L 365.375 200.195312 L 366.425781 200.175781 L 367.472656 200.21875 L 368.523438 200.316406 L 369.574219 200.46875 L 370.621094 200.667969 L 371.671875 200.902344 L 372.722656 201.160156 L 373.769531 201.441406 L 374.820312 201.742188 L 375.871094 202.046875 L 376.917969 202.351562 L 377.96875 202.652344 L 379.019531 202.945312 L 380.066406 203.222656 L 381.117188 203.476562 L 382.167969 203.707031 L 383.214844 203.917969 L 384.265625 204.097656 L 385.316406 204.242188 L 386.363281 204.355469 L 387.414062 204.4375 L 388.464844 204.492188 L 389.511719 204.515625 L 390.5625 204.503906 L 391.613281 204.472656 L 392.660156 204.421875 L 393.710938 204.351562 L 394.761719 204.265625 L 395.808594 204.171875 L 396.859375 204.078125 L 397.910156 203.992188 L 398.957031 203.910156 L 400.007812 203.847656 L 401.058594 203.8125 L 402.105469 203.804688 L 403.15625 203.835938 L 404.207031 203.90625 L 405.253906 204.035156 L 406.304688 204.222656 L 407.355469 204.472656 L 408.40625 204.789062 L 409.453125 205.167969 L 410.503906 205.636719 L 411.554688 206.1875 L 412.601562 206.820312 L 413.652344 207.527344 L 414.703125 208.316406 L 415.75 209.203125 L 416.800781 210.175781 L 417.851562 211.222656 L 418.898438 212.339844 L 419.949219 213.53125 L 421 214.808594 L 422.046875 216.148438 L 423.097656 217.542969 L 424.148438 218.988281 L 425.195312 220.476562 L 426.246094 222.011719 L 427.296875 223.574219 L 428.34375 225.15625 L 429.394531 226.75 L 430.445312 228.351562 L 431.492188 229.949219 L 432.542969 231.53125 L 433.59375 233.097656 L 434.640625 234.636719 L 435.691406 236.136719 L 436.742188 237.589844 L 437.789062 238.988281 L 438.839844 240.335938 L 439.890625 241.625 L 440.9375 242.835938 L 441.988281 243.960938 L 443.039062 245.015625 L 444.085938 245.988281 L 445.136719 246.882812 L 446.1875 247.675781 L 447.234375 248.371094 L 448.285156 248.980469 L 449.335938 249.507812 L 450.382812 249.949219 L 451.433594 250.285156 L 452.484375 250.53125 L 453.53125 250.703125 L 454.582031 250.804688 L 455.632812 250.832031 L 456.679688 250.773438 L 457.730469 250.660156 L 458.78125 250.492188 L 459.828125 250.28125 L 460.878906 250.027344 L 461.929688 249.738281 L 462.976562 249.429688 L 464.027344 249.105469 L 465.078125 248.777344 L 466.125 248.449219 L 467.175781 248.140625 L 468.226562 247.851562 L 469.273438 247.589844 L 470.324219 247.367188 L 471.375 247.1875 L 472.421875 247.074219 L 473.472656 247.019531 L 474.523438 247.023438 L 475.570312 247.097656 L 476.621094 247.257812 L 477.671875 247.507812 L 478.71875 247.839844 L 479.769531 248.253906 L 480.820312 248.753906 L 481.867188 249.359375 L 482.917969 250.058594 L 483.96875 250.847656 L 485.015625 251.722656 L 486.066406 252.679688 L 487.117188 253.742188 L 488.164062 254.890625 L 489.214844 256.113281 L 490.265625 257.40625 L 491.3125 258.769531 L 492.363281 260.214844 L 493.414062 261.714844 L 494.460938 263.269531 L 495.511719 264.871094 L 496.5625 266.511719 L 497.609375 268.199219 L 498.660156 269.910156 L 499.710938 271.640625 L 500.757812 273.382812 L 502.859375 276.890625 L 503.910156 278.640625 L 504.957031 280.375 L 506.007812 282.089844 L 507.058594 283.78125 L 508.105469 285.4375 L 509.15625 287.058594 L 510.207031 288.640625 L 511.253906 290.183594 L 512.304688 291.667969 L 513.355469 293.09375 L 514.402344 294.46875 L 515.453125 295.785156 L 516.503906 297.050781 L 517.550781 298.238281 L 518.601562 299.363281 L 519.652344 300.429688 L 520.699219 301.4375 L 521.75 302.382812 L 522.800781 303.253906 L 523.847656 304.066406 L 524.898438 304.824219 L 525.949219 305.527344 L 526.996094 306.175781 L 528.046875 306.757812 L 529.097656 307.292969 L 530.144531 307.785156 L 531.195312 308.234375 L 532.246094 308.636719 L 533.292969 308.996094 L 534.34375 309.320312 L 535.394531 309.609375 L 536.441406 309.871094 L 537.492188 310.101562 L 538.542969 310.304688 L 539.589844 310.480469 L 540.640625 310.640625 L 541.691406 310.777344 L 542.738281 310.898438 L 543.789062 311 L 544.839844 311.089844 L 545.886719 311.167969 L 546.9375 311.238281 L 547.988281 311.292969 L 549.035156 311.339844 L 550.085938 311.382812 L 551.136719 311.417969 L 552.183594 311.449219 L 553.234375 311.472656 L 554.285156 311.492188 L 555.332031 311.507812 L 556.382812 311.523438 L 557.433594 311.535156 L 558.480469 311.546875 L 559.53125 311.554688 L 560.582031 311.558594 L 561.628906 311.566406 L 563.730469 311.574219 L 564.777344 311.578125 L 565.828125 311.578125 L 566.878906 311.582031 L 568.976562 311.582031 L 570.027344 311.585938 L 571.074219 311.585938 "/>
<path fill="none" stroke-width="1.551969" stroke-linecap="butt" stroke-linejoin="round" stroke="rgb(100%, 0%, 0%)" stroke-opacity="1" stroke-miterlimit="10" d="M 34.785156 311.585938 L 66.269531 311.585938 L 67.320312 311.582031 L 69.417969 311.582031 L 70.46875 311.578125 L 71.515625 311.578125 L 73.617188 311.570312 L 74.664062 311.566406 L 75.714844 311.558594 L 76.765625 311.554688 L 77.8125 311.546875 L 79.914062 311.523438 L 80.960938 311.507812 L 82.011719 311.492188 L 83.0625 311.46875 L 84.109375 311.445312 L 85.160156 311.414062 L 86.210938 311.378906 L 87.257812 311.335938 L 88.308594 311.285156 L 89.359375 311.226562 L 90.40625 311.152344 L 91.457031 311.070312 L 92.507812 310.976562 L 93.554688 310.863281 L 94.605469 310.738281 L 95.65625 310.585938 L 96.703125 310.414062 L 97.753906 310.21875 L 98.804688 310 L 99.851562 309.746094 L 100.902344 309.457031 L 101.953125 309.132812 L 103 308.769531 L 104.050781 308.367188 L 105.101562 307.910156 L 106.148438 307.398438 L 107.199219 306.835938 L 108.25 306.214844 L 109.296875 305.539062 L 110.347656 304.78125 L 111.398438 303.953125 L 112.445312 303.058594 L 113.496094 302.085938 L 114.546875 301.042969 L 115.59375 299.894531 L 116.644531 298.664062 L 117.695312 297.351562 L 118.746094 295.957031 L 119.792969 294.46875 L 120.84375 292.871094 L 121.894531 291.191406 L 122.941406 289.421875 L 123.992188 287.570312 L 125.042969 285.625 L 126.089844 283.578125 L 127.140625 281.453125 L 128.191406 279.257812 L 129.238281 276.988281 L 130.289062 274.640625 L 131.339844 272.21875 L 132.386719 269.742188 L 133.4375 267.214844 L 134.488281 264.644531 L 135.535156 262.023438 L 136.585938 259.375 L 137.636719 256.699219 L 138.683594 254.011719 L 140.785156 248.613281 L 141.832031 245.925781 L 142.882812 243.253906 L 143.933594 240.605469 L 144.980469 237.988281 L 146.03125 235.421875 L 147.082031 232.90625 L 148.128906 230.445312 L 149.179688 228.042969 L 150.230469 225.707031 L 151.277344 223.472656 L 152.328125 221.320312 L 153.378906 219.25 L 154.425781 217.269531 L 155.476562 215.386719 L 156.527344 213.628906 L 157.574219 211.972656 L 158.625 210.421875 L 159.675781 208.972656 L 160.722656 207.644531 L 161.773438 206.445312 L 162.824219 205.355469 L 163.871094 204.367188 L 164.921875 203.488281 L 165.972656 202.730469 L 167.019531 202.085938 L 168.070312 201.542969 L 169.121094 201.089844 L 170.167969 200.726562 L 171.21875 200.46875 L 172.269531 200.300781 L 173.316406 200.203125 L 174.367188 200.171875 L 175.417969 200.203125 L 176.464844 200.304688 L 177.515625 200.460938 L 178.566406 200.652344 L 179.613281 200.878906 L 180.664062 201.136719 L 181.714844 201.421875 L 182.761719 201.71875 L 184.863281 202.328125 L 185.910156 202.632812 L 186.960938 202.925781 L 188.011719 203.199219 L 189.058594 203.460938 L 190.109375 203.695312 L 191.160156 203.910156 L 192.207031 204.085938 L 193.257812 204.234375 L 194.308594 204.351562 L 195.355469 204.441406 L 196.40625 204.496094 L 197.457031 204.519531 L 198.503906 204.511719 L 199.554688 204.484375 L 200.605469 204.433594 L 201.652344 204.363281 L 202.703125 204.28125 L 203.753906 204.1875 L 204.800781 204.09375 L 205.851562 204.003906 L 206.902344 203.921875 L 207.949219 203.859375 L 209 203.820312 L 210.050781 203.808594 L 211.097656 203.828125 L 212.148438 203.902344 L 213.199219 204.027344 L 214.246094 204.207031 L 215.296875 204.445312 L 216.347656 204.742188 L 217.398438 205.132812 L 218.445312 205.59375 L 219.496094 206.132812 L 220.546875 206.746094 L 221.59375 207.441406 L 222.644531 208.242188 L 223.695312 209.117188 L 224.742188 210.074219 L 225.792969 211.105469 L 226.84375 212.21875 L 227.890625 213.417969 L 228.941406 214.683594 L 229.992188 216.011719 L 231.039062 217.394531 L 232.089844 218.835938 L 233.140625 220.332031 L 234.1875 221.859375 L 235.238281 223.414062 L 236.289062 224.996094 L 237.335938 226.589844 L 238.386719 228.191406 L 239.4375 229.789062 L 240.484375 231.375 L 241.535156 232.945312 L 242.585938 234.484375 L 243.632812 235.984375 L 244.683594 237.445312 L 245.734375 238.855469 L 246.78125 240.214844 L 247.832031 241.5 L 248.882812 242.710938 L 249.929688 243.851562 L 250.980469 244.921875 L 252.03125 245.910156 L 253.078125 246.792969 L 254.128906 247.59375 L 255.179688 248.304688 L 256.226562 248.933594 L 257.277344 249.472656 L 258.328125 249.902344 L 259.375 250.25 L 260.425781 250.515625 L 261.476562 250.703125 L 262.523438 250.804688 L 263.574219 250.824219 L 264.625 250.777344 L 265.671875 250.675781 L 266.722656 250.519531 L 267.773438 250.308594 L 268.820312 250.054688 L 269.871094 249.769531 L 270.921875 249.460938 L 271.96875 249.140625 L 274.070312 248.484375 L 275.117188 248.171875 L 276.167969 247.878906 L 277.21875 247.613281 L 278.265625 247.390625 L 279.316406 247.214844 L 280.367188 247.089844 L 281.414062 247.019531 L 282.464844 247.011719 L 283.515625 247.09375 L 284.5625 247.253906 L 285.613281 247.488281 L 286.664062 247.800781 L 287.710938 248.199219 L 288.761719 248.710938 L 289.8125 249.308594 L 290.859375 249.992188 L 291.910156 250.761719 L 292.960938 251.625 L 294.007812 252.597656 L 295.058594 253.648438 L 296.109375 254.777344 L 297.15625 255.984375 L 298.207031 257.273438 L 299.257812 258.644531 L 300.304688 260.078125 L 301.355469 261.570312 L 302.40625 263.113281 L 303.453125 264.714844 L 304.503906 266.359375 L 305.554688 268.035156 L 306.601562 269.742188 L 307.652344 271.46875 L 308.703125 273.214844 L 309.75 274.96875 L 310.800781 276.722656 L 311.851562 278.472656 L 312.902344 280.210938 L 313.949219 281.925781 L 315 283.617188 L 316.050781 285.277344 L 317.097656 286.90625 L 318.148438 288.5 L 319.199219 290.035156 L 320.246094 291.519531 L 321.296875 292.957031 L 322.347656 294.34375 L 323.394531 295.671875 L 324.445312 296.925781 L 325.496094 298.121094 L 326.542969 299.257812 L 327.59375 300.335938 L 328.644531 301.347656 L 329.691406 302.289062 L 330.742188 303.167969 L 331.792969 303.992188 L 332.839844 304.757812 L 333.890625 305.464844 L 334.941406 306.105469 L 335.988281 306.699219 L 337.039062 307.246094 L 338.089844 307.746094 L 339.136719 308.195312 L 340.1875 308.597656 L 341.238281 308.960938 L 342.285156 309.292969 L 343.335938 309.589844 L 344.386719 309.847656 L 345.433594 310.078125 L 346.484375 310.285156 L 347.535156 310.464844 L 348.582031 310.628906 L 349.632812 310.765625 L 350.683594 310.886719 L 351.730469 310.992188 L 352.78125 311.082031 L 353.832031 311.164062 L 354.878906 311.230469 L 355.929688 311.285156 L 356.980469 311.335938 L 358.027344 311.378906 L 359.078125 311.414062 L 360.128906 311.445312 L 361.175781 311.46875 L 362.226562 311.492188 L 363.277344 311.507812 L 364.324219 311.523438 L 365.375 311.535156 L 366.425781 311.542969 L 367.472656 311.554688 L 368.523438 311.558594 L 369.574219 311.566406 L 370.621094 311.570312 L 371.671875 311.574219 L 372.722656 311.574219 L 373.769531 311.578125 L 374.820312 311.582031 L 376.917969 311.582031 L 377.96875 311.585938 L 571.074219 311.585938 "/>
</g>
<g clip-path="url(#clip-2)">
<path fill="none" stroke-width="1.551969" stroke-linecap="butt" stroke-linejoin="round" stroke="rgb(62.745098%, 12.54902%, 94.117647%)" stroke-opacity="1" stroke-miterlimit="10" d="M 34.785156 311.585938 L 157.574219 311.585938 L 159.675781 311.578125 L 160.722656 311.566406 L 161.773438 311.550781 L 162.824219 311.519531 L 163.871094 311.460938 L 164.921875 311.363281 L 165.972656 311.203125 L 167.019531 310.949219 L 168.070312 310.546875 L 169.121094 309.933594 L 170.167969 309.015625 L 171.21875 307.632812 L 172.269531 305.660156 L 173.316406 302.925781 L 174.367188 299.234375 L 175.417969 294.386719 L 176.464844 288.175781 L 177.515625 280.421875 L 178.566406 270.96875 L 179.613281 259.714844 L 180.664062 246.628906 L 181.714844 231.753906 L 182.761719 215.132812 L 183.8125 197.070312 L 184.863281 177.964844 L 185.910156 158.207031 L 186.960938 138.222656 L 188.011719 118.464844 L 189.058594 99.378906 L 190.109375 81.390625 L 191.160156 64.878906 L 192.207031 50.175781 L 193.257812 37.523438 L 194.308594 27.109375 L 195.355469 19.210938 L 196.40625 13.542969 L 197.457031 9.953125 L 198.503906 8.199219 L 199.554688 7.96875 L 200.605469 8.914062 L 201.652344 10.640625 L 202.703125 12.777344 L 203.753906 14.960938 L 204.800781 16.898438 L 205.851562 18.359375 L 206.902344 19.179688 L 207.949219 19.359375 L 209 19.042969 L 210.050781 18.445312 L 211.097656 17.859375 L 212.148438 17.621094 L 213.199219 18.089844 L 214.246094 19.613281 L 215.296875 22.484375 L 216.347656 26.921875 L 217.398438 33.027344 L 218.445312 40.804688 L 219.496094 50.222656 L 220.546875 60.816406 L 221.59375 72.21875 L 222.644531 84 L 223.695312 95.707031 L 224.742188 106.90625 L 225.792969 117.179688 L 226.84375 126.175781 L 227.890625 133.617188 L 228.941406 139.316406 L 229.992188 143.199219 L 231.039062 145.199219 L 232.089844 145.546875 L 233.140625 144.617188 L 234.1875 142.792969 L 235.238281 140.523438 L 236.289062 138.273438 L 237.335938 136.519531 L 238.386719 135.691406 L 239.4375 136.164062 L 240.484375 138.21875 L 241.535156 142.046875 L 242.585938 147.730469 L 243.632812 155.402344 L 244.683594 164.710938 L 245.734375 175.410156 L 246.78125 187.199219 L 247.832031 199.730469 L 248.882812 212.636719 L 249.929688 225.542969 L 250.980469 238.105469 L 252.03125 250.011719 L 253.078125 261.003906 L 254.128906 270.886719 L 255.179688 279.476562 L 256.226562 286.730469 L 257.277344 292.753906 L 258.328125 297.628906 L 259.375 301.472656 L 260.425781 304.433594 L 261.476562 306.648438 L 262.523438 308.261719 L 263.574219 309.40625 L 264.625 310.195312 L 265.671875 310.722656 L 266.722656 311.0625 L 267.773438 311.273438 L 268.820312 311.402344 L 269.871094 311.480469 L 270.921875 311.527344 L 271.96875 311.554688 L 273.019531 311.570312 L 274.070312 311.578125 L 275.117188 311.582031 L 276.167969 311.585938 L 571.074219 311.585938 "/>
</g>
<path fill="none" stroke-width="1.551969" stroke-linecap="square" stroke-linejoin="round" stroke="rgb(0%, 0%, 0%)" stroke-opacity="1" stroke-miterlimit="10" d="M 7.96875 311.585938 L 597.890625 311.585938 "/>
<path fill="none" stroke-width="1.551969" stroke-linecap="butt" stroke-linejoin="round" stroke="rgb(0%, 0%, 0%)" stroke-opacity="1" stroke-miterlimit="10" d="M 34.785156 315.574219 L 34.785156 311.585938 "/>
<path fill="none" stroke-width="1.551969" stroke-linecap="butt" stroke-linejoin="round" stroke="rgb(0%, 0%, 0%)" stroke-opacity="1" stroke-miterlimit="10" d="M 213.546875 315.574219 L 213.546875 311.585938 "/>
<path fill="none" stroke-width="1.551969" stroke-linecap="butt" stroke-linejoin="round" stroke="rgb(0%, 0%, 0%)" stroke-opacity="1" stroke-miterlimit="10" d="M 392.3125 315.574219 L 392.3125 311.585938 "/>
<path fill="none" stroke-width="1.551969" stroke-linecap="butt" stroke-linejoin="round" stroke="rgb(0%, 0%, 0%)" stroke-opacity="1" stroke-miterlimit="10" d="M 571.074219 315.574219 L 571.074219 311.585938 "/>
<g fill="rgb(0%, 0%, 0%)" fill-opacity="1">
<use xlink:href="#glyph-0-0" x="26.253906" y="328.234375"/>
<use xlink:href="#glyph-0-1" x="30.516406" y="328.234375"/>
<use xlink:href="#glyph-0-2" x="36.916406" y="328.234375"/>
</g>
<g fill="rgb(0%, 0%, 0%)" fill-opacity="1">
<use xlink:href="#glyph-0-2" x="210.347656" y="328.234375"/>
</g>
<g fill="rgb(0%, 0%, 0%)" fill-opacity="1">
<use xlink:href="#glyph-0-1" x="385.914062" y="328.234375"/>
<use xlink:href="#glyph-0-2" x="392.314062" y="328.234375"/>
</g>
<g fill="rgb(0%, 0%, 0%)" fill-opacity="1">
<use xlink:href="#glyph-0-3" x="564.675781" y="328.234375"/>
<use xlink:href="#glyph-0-2" x="571.075781" y="328.234375"/>
</g>
<g fill="rgb(0%, 0%, 0%)" fill-opacity="1">
<use xlink:href="#glyph-1-0" x="271.832031" y="347.578125"/>
<use xlink:href="#glyph-1-1" x="278.933594" y="347.578125"/>
<use xlink:href="#glyph-1-2" x="286.933594" y="347.578125"/>
<use xlink:href="#glyph-1-3" x="294.933594" y="347.578125"/>
<use xlink:href="#glyph-1-4" x="302.035156" y="347.578125"/>
<use xlink:href="#glyph-1-5" x="309.136719" y="347.578125"/>
<use xlink:href="#glyph-1-6" x="313.582031" y="347.578125"/>
<use xlink:href="#glyph-1-7" x="318.027344" y="347.578125"/>
<use xlink:href="#glyph-1-8" x="326.027344" y="347.578125"/>
</g>
<path fill-rule="nonzero" fill="rgb(100%, 100%, 100%)" fill-opacity="1" d="M 613.832031 207.199219 L 712.03125 207.199219 L 712.03125 112.355469 L 613.832031 112.355469 Z M 613.832031 207.199219 "/>
<path fill-rule="nonzero" fill="rgb(100%, 100%, 100%)" fill-opacity="1" d="M 621.800781 161.625 L 639.082031 161.625 L 639.082031 144.34375 L 621.800781 144.34375 Z M 621.800781 161.625 "/>
<path fill="none" stroke-width="1.551969" stroke-linecap="butt" stroke-linejoin="round" stroke="rgb(100%, 0%, 0%)" stroke-opacity="1" stroke-miterlimit="10" d="M 622.832031 160.59375 L 638.050781 160.59375 L 638.050781 145.375 L 622.832031 145.375 Z M 622.832031 160.59375 "/>
<path fill-rule="nonzero" fill="rgb(100%, 100%, 100%)" fill-opacity="1" d="M 621.800781 178.90625 L 639.082031 178.90625 L 639.082031 161.625 L 621.800781 161.625 Z M 621.800781 178.90625 "/>
<path fill="none" stroke-width="1.551969" stroke-linecap="butt" stroke-linejoin="round" stroke="rgb(0%, 0%, 100%)" stroke-opacity="1" stroke-miterlimit="10" d="M 622.832031 177.875 L 638.050781 177.875 L 638.050781 162.65625 L 622.832031 162.65625 Z M 622.832031 177.875 "/>
<path fill-rule="nonzero" fill="rgb(100%, 100%, 100%)" fill-opacity="1" d="M 621.800781 199.230469 L 639.082031 199.230469 L 639.082031 178.90625 L 621.800781 178.90625 Z M 621.800781 199.230469 "/>
<path fill="none" stroke-width="1.551969" stroke-linecap="butt" stroke-linejoin="round" stroke="rgb(62.745098%, 12.54902%, 94.117647%)" stroke-opacity="1" stroke-miterlimit="10" d="M 622.832031 198.199219 L 638.050781 198.199219 L 638.050781 179.9375 L 622.832031 179.9375 Z M 622.832031 198.199219 "/>
<g fill="rgb(0%, 0%, 0%)" fill-opacity="1">
<use xlink:href="#glyph-0-4" x="647.050781" y="155.808594"/>
</g>
<g fill="rgb(0%, 0%, 0%)" fill-opacity="1">
<use xlink:href="#glyph-2-0" x="653.449219" y="158.160156"/>
</g>
<g fill="rgb(0%, 0%, 0%)" fill-opacity="1">
<use xlink:href="#glyph-3-0" x="658.46875" y="155.808594"/>
</g>
<g fill="rgb(0%, 0%, 0%)" fill-opacity="1">
<use xlink:href="#glyph-0-4" x="668.679688" y="155.808594"/>
</g>
<path fill="none" stroke-width="0.75" stroke-linecap="round" stroke-linejoin="round" stroke="rgb(0%, 0%, 0%)" stroke-opacity="1" stroke-miterlimit="10" d="M 668.679688 147.1875 L 675.078125 147.1875 "/>
<g fill="rgb(0%, 0%, 0%)" fill-opacity="1">
<use xlink:href="#glyph-0-4" x="647.050781" y="171.949219"/>
</g>
<g fill="rgb(0%, 0%, 0%)" fill-opacity="1">
<use xlink:href="#glyph-2-0" x="653.449219" y="174.304688"/>
</g>
<g fill="rgb(0%, 0%, 0%)" fill-opacity="1">
<use xlink:href="#glyph-4-0" x="647.050781" y="192.894531"/>
</g>
<g fill="rgb(0%, 0%, 0%)" fill-opacity="1">
<use xlink:href="#glyph-0-4" x="652.378906" y="192.894531"/>
</g>
<g fill="rgb(0%, 0%, 0%)" fill-opacity="1">
<use xlink:href="#glyph-2-0" x="658.777344" y="195.25"/>
</g>
<g fill="rgb(0%, 0%, 0%)" fill-opacity="1">
<use xlink:href="#glyph-3-0" x="663.796875" y="192.894531"/>
</g>
<g fill="rgb(0%, 0%, 0%)" fill-opacity="1">
<use xlink:href="#glyph-0-4" x="674.007812" y="192.894531"/>
</g>
<path fill="none" stroke-width="0.75" stroke-linecap="round" stroke-linejoin="round" stroke="rgb(0%, 0%, 0%)" stroke-opacity="1" stroke-miterlimit="10" d="M 674.007812 184.273438 L 680.40625 184.273438 "/>
<g fill="rgb(0%, 0%, 0%)" fill-opacity="1">
<use xlink:href="#glyph-4-1" x="680.40625" y="192.894531"/>
</g>
<path fill="none" stroke-width="0.75" stroke-linecap="round" stroke-linejoin="round" stroke="rgb(0%, 0%, 0%)" stroke-opacity="1" stroke-miterlimit="10" d="M 687.417969 195.050781 L 690.78125 181.265625 "/>
<g fill="rgb(0%, 0%, 0%)" fill-opacity="1">
<use xlink:href="#glyph-0-5" x="692.460938" y="192.894531"/>
</g>
<g fill="rgb(0%, 0%, 0%)" fill-opacity="1">
<use xlink:href="#glyph-2-1" x="699.578125" y="195.25"/>
</g>
</svg>
